<svg width="287" height="337" viewBox="0 0 287 337" xmlns="http://www.w3.org/2000/svg" xmlns:xlink="http://www.w3.org/1999/xlink"><title>Shape Clipped</title><defs><path id="a" d="M27 11h285.8v336.9H27z"/><path id="c" d="M0 0h285.8v336.9H0z"/><path id="e" d="M0 0h285.8v336.9H0z"/><path id="g" d="M0 0h285.8v336.9H0z"/><path id="i" d="M0 0h285.8v336.9H0z"/><path id="k" d="M0 0h285.8v336.9H0z"/><path id="m" d="M0 0h285.8v336.9H0z"/><path id="o" d="M0 0h285.8v336.9H0z"/><path id="q" d="M0 0h285.8v336.9H0z"/><path id="s" d="M0 0h285.8v336.9H0z"/><path id="u" d="M0 0h285.8v336.9H0z"/><path id="w" d="M0 0h285.8v336.9H0z"/><path id="y" d="M0 0h285.8v336.9H0z"/><path id="A" d="M0 0h285.8v336.9H0z"/><path id="C" d="M0 0h285.8v336.9H0z"/><path id="E" d="M0 0h285.8v336.9H0z"/><path id="G" d="M0 0h285.8v336.9H0z"/><path id="I" d="M0 0h285.8v336.9H0z"/><path id="K" d="M0 0h285.8v336.9H0z"/><path id="M" d="M0 0h285.8v336.9H0z"/><path id="O" d="M0 0h285.8v336.9H0z"/><path id="Q" d="M0 0h285.8v336.9H0z"/></defs><g fill="none" fill-rule="evenodd"><g transform="translate(-26 -13)"><mask id="b" fill="#fff"><use xlink:href="#a"/></mask><path d="M279.1 196.9c-5.8 3.6-11.2 7.1-17.1 10.8-1.9 1.2-4.3.8-5.7-.9-1.7-2.1-3.3-4.1-4.6-6.2-.5-.8.6-2.9 1.8-3.6 8.3-5.2 16.7-10.3 25.4-15.1 1.5-.8 5.1-.4 6.7.6 4.7 3 8.5 8.8 13.3 9.3 4.7.5 10.3-4 15.5-6.3 1.2-.5 2.3-1 3.6-1.6 1.8-.8 4-.3 5.2 1.3.7.9 1.3 1.7 2 2.6 1.7 2.2 1 5.3-1.5 6.5-8.9 4.5-17.6 8.9-26.4 13.1-1.1.5-4.2-.8-5.5-1.9-2.9-2.5-5.5-5.2-8.4-8.1-1-1.2-2.8-1.4-4.3-.5z" fill="#EDEDED" mask="url(#b)"/></g><g><mask id="d" fill="#fff"><use xlink:href="#c"/></mask><path d="M245.4 53.9c-2.2 5.8-4.1 10.9-6 16-3.3 8.6-3.5 9.2-13.5 6.1-1.3-.4-2-1.7-1.5-3 1.6-5 3.3-10.1 5-15.2 1.6-4.8 3.7-9.6 5-14.5 1.2-4.6 3.7-5.3 8.6-3.2 5.1 2.1 10.6 3.5 15.9 5.4 4.1 1.5 6.6.9 8.8-2.6 7.7-12.1 7.8-12 22.9-6.1 6 2.4 12.1 4.5 17.9 7.2 1.3.6 2.3 3.4 1.7 4.5-4.5 7.7-4.8 7.7-14.3 4-13.7-5.2-14-5.4-21.2 5.1-3.2 4.8-6.3 5.2-11.8 2.8-5.4-2.3-11.2-4.1-17.5-6.5" fill="#EDEDED" mask="url(#d)"/></g><g><mask id="f" fill="#fff"><use xlink:href="#e"/></mask><path d="M226.7 302.8c.3-1.2-.7-2.2-1.9-2.1-9.9 1.4-19.1 2.2-27.3 3.4-5.2.8-7.2.8-8.3-3.6-.3-1.3-1.3-4.3-1.7-5.5-2.1-6-1.7-7.9-12.5-6.3-7.9 1.2-15.9 2.2-23.7 3.8-1.9.4-7.8 1.2-7.4 4.9.7 6.9.7 9.1 10.2 7.5 4.7-.8 9.5-1.2 14.2-2.1 4.1-.8 6.6-.1 7.6 3.5.8 3.1 1.8 6.2 2.9 9.2 1.6 4.2 2.7 4.3 6.7 3.4 5.9-1.3 9.5-1.8 16.6-3.1 1.2-.2 4.4-1 4.3 1.6-.1 6-2.1 11-3.5 16-1.2 4.4.3 6.5 6 7.3 4.9.6 8 .7 9.1-4.4 2.6-10.9 5.6-21.6 8.7-33.5z" fill="#EDEDED" mask="url(#f)"/></g><g><mask id="h" fill="#fff"><use xlink:href="#g"/></mask><path d="M131.9 133.9c-2.2 5.8-4.1 10.9-6 16-3.3 8.6-3.5 9.2-13.5 6.1-1.3-.4-2-1.7-1.5-3 1.6-5 3.3-10.1 5-15.2 1.6-4.8 3.7-9.6 5-14.5 1.2-4.6 3.7-5.3 8.6-3.2 5.1 2.1 10.6 3.5 15.9 5.4 4.1 1.5 6.6.9 8.8-2.6 7.7-12.1 7.8-12 22.9-6.1 6 2.4 12.1 4.5 17.9 7.2 1.3.6 2.3 3.4 1.7 4.5-4.5 7.7-4.8 7.7-14.3 4-13.7-5.2-14-5.4-21.2 5.1-3.2 4.8-6.3 5.2-11.8 2.8-5.4-2.2-11.1-4.1-17.5-6.5" fill="#EDEDED" mask="url(#h)"/></g><g><mask id="j" fill="#fff"><use xlink:href="#i"/></mask><path d="M122.5 299.3c2.3.3 3.8 2.7 2.8 4.9-5.4 12.9-10.3 24.9-15.8 36.8-2.5 5.3-7 1.7-11.2.4-.9-.3-2.6-3.2-2.1-4.5 2.8-7.2 5.8-14.4 9.1-22.1 1.1-2.6-.6-5.6-3.4-5.9-6.2-.9-12.1-1.7-18.3-2.6-2.8-.4-4.4-3.2-3.4-5.8 4.3-11 8.5-21.7 12.7-32.3.7-1.9 2.7-3 4.7-2.6 10.3 1.7 10.2 1.7 6.9 9.6-2.3 5.5-4.2 11-6.5 16.5-1.5 3.5-.4 5.1 4.3 5.5 6.3.4 12.7 1.2 20.2 2.1z" fill="#EDEDED" mask="url(#j)"/></g><g><mask id="l" fill="#fff"><use xlink:href="#k"/></mask><path d="M143.9 15c2.9-.1 5.1 2.7 4.3 5.5-1.4 5.5-2.7 10.6-4.3 15.8-1.1 3.7-.2 5.4 3.9 5.8 5.7.6 13.6.1 16.3 3.3 2.7 3.3.3 10.5 0 16-.3 4.9-.9 9.9-1 14.8 0 4.1-1.7 6-6.3 6.2-1 0-1.9.2-2.9.3-3.2.5-6.1-2.1-5.9-5.4.3-5.3.5-10.5 1-15.7.4-3.8-.9-5.7-4.9-6.2-4.7-.6-9.3-1.5-14.3-2.4-3-.6-4.9-3.6-4.1-6.5 2.7-9.7 4.7-16.7 7.5-26.3.3-.9 1.2-4.2 4.3-4.9 2.2-.4 4.3-.2 6.4-.3z" fill="#EDEDED" mask="url(#l)"/></g><g><mask id="n" fill="#fff"><use xlink:href="#m"/></mask><path d="M173.3 225.1c-2 .3-4-.8-4.8-2.7-4.7-11.1-9.2-21.7-13.4-32.3-.5-1.2.1-3.4 3.2-4.4 2.9-1 5.6-2.9 8.2 3.1 2.3 5.2 4.9 10.3 6.6 15.6 1.9 5.8 4.8 6.8 9.4 5.6 4.4-1.2 9-1.9 13.7-2.4 1.3-.1 4.2 1.1 4.5 2 4 13.2 7.8 26.5 11.4 39.2.2.7 0 1.4-.4 1.9-.1.1-.1.1-.2.1-11.3 2.1-11.3 2.1-14.9-10.4-1.2-4.3-2.5-8.6-3.5-12.8-.9-3.8-2.5-5.3-6.2-4.6-4.4.9-8.9 1.4-13.6 2.1z" fill="#EDEDED" mask="url(#n)"/></g><g><mask id="p" fill="#fff"><use xlink:href="#o"/></mask><path d="M100.1 210.7c-.9-1.7-1.5-2.9-2.2-4.1-4.2-7.2-8.3-14.5-12.7-21.7-3.7-6.1 3.6-5.1 6.3-7.2 3-2.3 5.6-1 7.1 1.7 6.2 10.6 12.4 21.2 18.8 31.7 1.9 3.2 1.7 5.4-2.6 7.2-12.4 5.2-24.7 10.7-37 16.1-3.4 1.5-6.5 2.6-8-1.5-1.3-3.3-5.6-7.5 1.9-10.2 8.4-2.9 27.1-11.1 28.4-12" fill="#EDEDED" mask="url(#p)"/></g><g><mask id="r" fill="#fff"><use xlink:href="#q"/></mask><path d="M53.5 1.4c1.8-2 5.3-1.8 7.2.1 8.6 8.7 15.9 17.2 24.9 24.9 2.6 2.2 2.4 7.3 1.2 8.9-8.9 11.4-18.8 22-27.9 33.1-2.1 2.6-4.1 2.8-8.8-1.2-2.4-2-4.7-4.3-1-8.9 5.7-7.1 11.7-14.1 17.8-20.8 3.2-3.6 3.3-6 .6-8.6-5.1-5-9.9-10.3-14.9-15.4-5.1-5.2-5.1-5.2.9-12.1.2-.2-.1.2 0 0z" fill="#EDEDED" mask="url(#r)"/></g><g><mask id="t" fill="#fff"><use xlink:href="#s"/></mask><path d="M-33.6 185.9c-5.8 3.6-11.2 7.1-17.1 10.8-1.9 1.2-4.3.8-5.7-.9-1.7-2.1-3.3-4.1-4.6-6.2-.5-.8.6-2.9 1.8-3.6 8.3-5.2 16.7-10.3 25.4-15.1 1.5-.8 5.1-.4 6.7.6 4.7 3 8.5 8.8 13.3 9.3 4.7.5 10.3-4 15.5-6.3 1.2-.5 2.3-1 3.6-1.6 1.8-.8 4-.3 5.2 1.3.7.9 1.3 1.7 2 2.6 1.7 2.2 1 5.3-1.5 6.5-8.9 4.5-17.6 8.9-26.4 13.1-1.1.5-4.2-.8-5.5-1.9-2.9-2.5-5.5-5.2-8.4-8.1-1-1.2-2.9-1.4-4.3-.5z" fill="#EDEDED" mask="url(#t)"/></g><g><mask id="v" fill="#fff"><use xlink:href="#u"/></mask><path d="M52.6 278.4c.7 1 .4 2.4-.7 2.9-11.8 5.6-11.9 5.5-18.4-4.1-3.6-5.4-7.3-10.8-11.2-16-2-2.6-1.6-4.3 1.5-6 4.7-2.6 12-5.1 12.8-8.5 1-4.2-3.4-9.3-5.8-13.9-1.7-3.3-4.1-6.2 2.2-8.5 5.7-2.1 8.4-1.4 10.7 3.4 3.2 6.6 7.1 12.9 11 19.2 1.8 2.9 1.4 4.6-2 6.4-13.6 7.3-13.5 7.3-4.9 18.5l4.8 6.6z" fill="#EDEDED" mask="url(#v)"/></g><g><mask id="x" fill="#fff"><use xlink:href="#w"/></mask><path d="M301 314.6c-1 1.6-1.9 3.2-2.9 5-1 1.7-3.1 2.3-4.8 1.5-9.3-4.2-18.2-8.3-27.5-12.4-2.1-.9-2.9-3.5-1.7-5.5 5.9-9.5 11.6-18.5 17.4-27.4.6-1 3.5-1.7 4.9-1.5 1.4.2 2.7.6 4.1 1 2.3.8 3.3 3.4 2.1 5.5-2.9 5-5.7 10-8.9 14.7-3 4.3-2.2 6.3 2.2 8 4.6 1.8 8.9 4 13.6 6.3 1.8.8 2.5 3.1 1.5 4.8z" fill="#EDEDED" mask="url(#x)"/></g><g><mask id="z" fill="#fff"><use xlink:href="#y"/></mask><path d="M41.4 158.6c1.8-3.5 6.1-4.8 9.6-3 3.4 1.9 4.7 6.3 2.9 9.8-1.8 3.5-6.1 4.8-9.6 3-3.5-1.9-4.7-6.3-2.9-9.8" fill="#EDEDED" mask="url(#z)"/></g><g><mask id="B" fill="#fff"><use xlink:href="#A"/></mask><path d="M142.7 243.5c1.8-3.5 6.1-4.8 9.6-3 3.4 1.9 4.7 6.3 2.9 9.8-1.8 3.5-6.1 4.8-9.6 3-3.4-1.8-4.7-6.2-2.9-9.8" fill="#EDEDED" mask="url(#B)"/></g><g><mask id="D" fill="#fff"><use xlink:href="#C"/></mask><path d="M-40.4 53.9c-2.2 5.8-4.1 10.9-6 16-3.3 8.6-3.5 9.2-13.5 6.1-1.3-.4-2-1.7-1.5-3 1.6-5 3.3-10.1 5-15.2 1.6-4.8 3.7-9.6 5-14.5 1.2-4.6 3.7-5.3 8.6-3.2 5.1 2.1 10.6 3.5 15.9 5.4 4.1 1.5 6.6.9 8.8-2.6 7.7-12.1 7.8-12 22.9-6.1 6 2.4 12.1 4.5 17.9 7.2 1.3.6 2.3 3.4 1.7 4.5-4.5 7.7-4.8 7.7-14.3 4-13.7-5.2-14-5.4-21.2 5.1-3.2 4.8-6.3 5.2-11.8 2.8-5.4-2.3-11.1-4.1-17.5-6.5" fill="#EDEDED" mask="url(#D)"/></g><g><mask id="F" fill="#fff"><use xlink:href="#E"/></mask><path d="M59.1 124.8c-.6 2-2.5 3.3-4.5 3.2-12-.5-23.5-.8-35-1.5-1.3-.1-3-1.5-2.6-4.7.3-3.1-.2-6.3 6.3-6.1 5.7.1 11.4 0 17 .6 6.1.7 8.2-1.5 9.1-6.1.8-4.5 2.1-9 3.6-13.4.4-1.3 2.8-3.3 3.7-3.2 13.7 1.9 27.3 4.2 40.4 6.2.7.1 1.3.6 1.6 1.2 0 .1.1.2 0 .2-2.9 11.2-2.9 11.2-15.7 9.1-4.4-.7-8.8-1.3-13.1-2.2-3.9-.8-5.9 0-6.7 3.6-1.3 4.3-2.7 8.6-4.1 13.1z" fill="#EDEDED" mask="url(#F)"/></g><g><mask id="H" fill="#fff"><use xlink:href="#G"/></mask><path d="M248.4 232.5c1.8-3.5 6.1-4.8 9.6-3 3.4 1.9 4.7 6.3 2.9 9.8-1.8 3.5-6.1 4.8-9.6 3-3.4-1.9-4.7-6.3-2.9-9.8" fill="#EDEDED" mask="url(#H)"/></g><g><mask id="J" fill="#fff"><use xlink:href="#I"/></mask><path d="M192.3 30.4c1.8-3.5 6.1-4.8 9.6-3 3.4 1.9 4.7 6.3 2.9 9.8-1.8 3.5-6.1 4.8-9.6 3-3.5-1.9-4.8-6.3-2.9-9.8" fill="#EDEDED" mask="url(#J)"/></g><g><mask id="L" fill="#fff"><use xlink:href="#K"/></mask><path d="M243.3 117.4c1.8-3.5 6.1-4.8 9.6-3 3.4 1.9 4.7 6.3 2.9 9.8-1.8 3.5-6.1 4.8-9.6 3-3.5-1.9-4.8-6.3-2.9-9.8" fill="#EDEDED" mask="url(#L)"/></g><g><mask id="N" fill="#fff"><use xlink:href="#M"/></mask><path d="M15.2 314.6c-1 1.6-1.9 3.2-2.9 5-1 1.7-3.1 2.3-4.8 1.5-9.3-4.2-18.2-8.3-27.5-12.4-2.1-.9-2.9-3.5-1.7-5.5 5.9-9.5 11.6-18.5 17.4-27.4.6-1 3.5-1.7 4.9-1.5 1.4.2 2.7.6 4.1 1 2.3.8 3.3 3.4 2.1 5.5-2.9 5-5.7 10-8.9 14.7-3 4.3-2.2 6.3 2.2 8 4.6 1.8 8.9 4 13.6 6.3 1.9.8 2.5 3.1 1.5 4.8z" fill="#EDEDED" mask="url(#N)"/></g><g><mask id="P" fill="#fff"><use xlink:href="#O"/></mask><path d="M226.7-34.1c.3-1.2-.7-2.2-1.9-2.1-9.9 1.4-19.1 2.2-27.3 3.4-5.2.8-7.2.8-8.3-3.6-.3-1.3-1.3-4.3-1.7-5.5-2.1-6-1.7-7.9-12.5-6.3-7.9 1.2-15.9 2.2-23.7 3.8-1.9.4-7.8 1.2-7.4 4.9.7 6.9.7 9.1 10.2 7.5 4.7-.8 9.5-1.2 14.2-2.1 4.1-.8 6.6-.1 7.6 3.5.8 3.1 1.8 6.2 2.9 9.2 1.6 4.2 2.7 4.3 6.7 3.4 5.9-1.3 9.5-1.8 16.6-3.1 1.2-.2 4.4-1 4.3 1.6-.1 6-2.1 11-3.5 16-1.2 4.4.3 6.5 6 7.3 4.9.6 8 .7 9.1-4.4 2.6-10.9 5.6-21.6 8.7-33.5z" fill="#EDEDED" mask="url(#P)"/></g><g><mask id="R" fill="#fff"><use xlink:href="#Q"/></mask><path d="M122.5-37.6c2.3.3 3.8 2.7 2.8 4.9-5.4 12.8-10.3 24.9-15.8 36.8-2.5 5.3-7 1.7-11.2.4-.9-.3-2.6-3.2-2.1-4.5 2.8-7.2 5.8-14.4 9.1-22.1 1.1-2.6-.6-5.6-3.4-5.9-6.2-.9-12.1-1.7-18.3-2.6-2.8-.4-4.4-3.2-3.4-5.8 4.3-11 8.5-21.7 12.7-32.3.7-1.9 2.7-3 4.7-2.6 10.3 1.7 10.2 1.7 6.9 9.6-2.3 5.5-4.2 11-6.5 16.5-1.5 3.5-.4 5.1 4.3 5.5 6.3.4 12.7 1.2 20.2 2.1z" fill="#EDEDED" mask="url(#R)"/></g></g></svg>